# xmcd CD database file
#
# Track frame offsets:
#	150
#	18778
#	38994
#	51770
#	71322
#	89213
#	114258
#	132583
#	150011
#	167871
#	184276
#	211602
#	228812
#	242360
#	268905
#
# Disc length: 3855 seconds
#
# Revision: 0
# Processed by: cddbd v1.5.1PL2 Copyright (c) Steve Scherf et al.
# Submitted via: CDex 1.50
#
DISCID=be0f0d0f
DTITLE=Various Artist - バディスタ！！ vol. 1 -Do You Like Rock?-
DYEAR=2006
DGENRE=Japanese Indies
TTITLE0=UNISON SQUARE GARDEN - ライトフライト
TTITLE1=AJISAI - 未来
TTITLE2=BRIT BANQUET - hello
TTITLE3=Alice Tea Party - 気高さを、想う。
TTITLE4=Depressed Deep Tokyo - 夜明け
TTITLE5=Crooner - Slow Life
TTITLE6=sobersides - 水音
TTITLE7=Seed - Human Life
TTITLE8=チェーンリアクション - inside out
TTITLE9=BAN☆BI - ヒマワリ
TTITLE10=3P-SHOOTERS - 素直になりたくて
TTITLE11=6×9＝54 - 君のそばで
TTITLE12=owgon - 涙が渇いたら
TTITLE13=Cure Rabbish - ある独りの夜の唄
TTITLE14=Piece Of Junk - 桜咲く日まで
EXTD=YEAR: 2006
EXTT0=
EXTT1=
EXTT2=
EXTT3=
EXTT4=
EXTT5=
EXTT6=
EXTT7=
EXTT8=
EXTT9=
EXTT10=
EXTT11=
EXTT12=
EXTT13=
EXTT14=
PLAYORDER=
